<?xml version="1.0" encoding="UTF-8"?>
<!DOCTYPE svg PUBLIC "-//W3C//DTD SVG 1.1//EN" "http://www.w3.org/Graphics/SVG/1.1/DTD/svg11.dtd">
<!-- Creator: CorelDRAW 2021 (64-Bit) -->
<svg xmlns="http://www.w3.org/2000/svg" xml:space="preserve" width="50px" height="50px" version="1.1" style="shape-rendering:geometricPrecision; text-rendering:geometricPrecision; image-rendering:optimizeQuality; fill-rule:evenodd; clip-rule:evenodd"
viewBox="0 0 50 49.97"
 xmlns:xlink="http://www.w3.org/1999/xlink"
 xmlns:xodm="http://www.corel.com/coreldraw/odm/2003">
 <defs>
  <style type="text/css">
   <![CDATA[
    .str0 {stroke:#FEFEFE;stroke-width:0.58;stroke-linecap:round;stroke-linejoin:round;stroke-miterlimit:2.61313}
    .fil0 {fill:none}
    .fil1 {fill:#FEFEFE}
    .fil2 {fill:url(#id0)}
   ]]>
  </style>
  <linearGradient id="id0" gradientUnits="userSpaceOnUse" x1="20.42" y1="9.1" x2="29.62" y2="9.1">
   <stop offset="0" style="stop-opacity:1; stop-color:#79C142"/>
   <stop offset="1" style="stop-opacity:1; stop-color:#A8CF45"/>
  </linearGradient>
 </defs>
 <g id="Layer_x0020_1">
  <metadata id="CorelCorpID_0Corel-Layer"/>
  <g id="_1732593679904">
   <path class="fil0 str0" d="M9.28 36.57c-5.49,1.35 -8.99,3.41 -8.99,5.71 0,4.09 11.06,7.4 24.71,7.4 13.65,0 24.71,-3.31 24.71,-7.4 0,-2.3 -3.5,-4.36 -8.99,-5.71"/>
   <path class="fil1" d="M8.36 14c0,4.81 1.23,7 3.3,11.08 1.35,2.68 5.72,8.52 7.8,10.96l3.8 4.22c1.16,1.05 2.67,0.86 3.72,-0.22 2.49,-2.56 6.48,-7.55 8.45,-10.39 2.96,-4.25 6.21,-9.85 6.21,-15.22 0,-4.64 -2.9,-9.29 -7.14,-11.83 -2.94,-1.77 -5.8,-2.6 -9.5,-2.6 -3.27,0 -6.7,0.79 -9.33,2.47l-1.62 1.13c-0.94,0.75 -1.69,1.32 -2.49,2.37 -1.78,2.33 -3.2,4.83 -3.2,8.03zm12.06 -4.96c0,-0.49 0.24,-1.37 0.4,-1.76 0.56,-1.42 2.2,-2.73 3.73,-2.73 1.61,0 2.51,0.13 3.75,1.37 3.56,3.54 -0.74,9.48 -5.28,7.25 -0.39,-0.2 -1.04,-0.6 -1.32,-0.93 -0.74,-0.88 -1.28,-1.97 -1.28,-3.2zm-4.57 13.46c0,-2.87 5.92,-4.67 9.15,-4.67 2.7,0 9.15,1.65 9.15,4.49 0,0.3 -0.09,0.38 -0.24,0.57 -0.94,1.23 -1.9,2.17 -3.28,2.99 -2.69,1.6 -5.46,1.92 -8.61,1.12 -2.11,-0.53 -4.01,-1.85 -5.39,-3.49 -0.12,-0.14 -0.78,-0.91 -0.78,-1.01z"/>
   <path class="fil2" d="M20.42 9.04c0,-0.49 0.24,-1.37 0.4,-1.76 0.56,-1.42 2.2,-2.73 3.73,-2.73 1.61,0 2.51,0.13 3.75,1.37 3.56,3.54 -0.74,9.48 -5.28,7.25 -0.39,-0.2 -1.04,-0.6 -1.32,-0.93 -0.74,-0.88 -1.28,-1.97 -1.28,-3.2z"/>
  </g>
 </g>
</svg>
